<svg width="1080" height="1350" viewBox="0 0 1080 1350" fill="none" xmlns="http://www.w3.org/2000/svg">
<g clip-path="url(#clip0_16_4)">
<mask id="path-1-inside-1_16_4" fill="white">
<path d="M0 0H100V100H0V0Z"/>
</mask>
<path d="M100 100V102H102V100H100ZM100 0H98V100H100H102V0H100ZM100 100V98H0V100V102H100V100Z" fill="#FF7626" mask="url(#path-1-inside-1_16_4)"/>
<mask id="path-3-inside-2_16_4" fill="white">
<path d="M0 100H100V200H0V100Z"/>
</mask>
<path d="M100 200V202H102V200H100ZM100 100H98V200H100H102V100H100ZM100 200V198H0V200V202H100V200Z" fill="#FF7626" mask="url(#path-3-inside-2_16_4)"/>
<mask id="path-5-inside-3_16_4" fill="white">
<path d="M0 200H100V300H0V200Z"/>
</mask>
<path d="M100 300V302H102V300H100ZM100 200H98V300H100H102V200H100ZM100 300V298H0V300V302H100V300Z" fill="#FF7626" mask="url(#path-5-inside-3_16_4)"/>
<mask id="path-7-inside-4_16_4" fill="white">
<path d="M0 300H100V400H0V300Z"/>
</mask>
<path d="M100 400V402H102V400H100ZM100 300H98V400H100H102V300H100ZM100 400V398H0V400V402H100V400Z" fill="#FF7626" mask="url(#path-7-inside-4_16_4)"/>
<mask id="path-9-inside-5_16_4" fill="white">
<path d="M0 400H100V500H0V400Z"/>
</mask>
<path d="M100 500V502H102V500H100ZM100 400H98V500H100H102V400H100ZM100 500V498H0V500V502H100V500Z" fill="#FF7626" mask="url(#path-9-inside-5_16_4)"/>
<mask id="path-11-inside-6_16_4" fill="white">
<path d="M0 500H100V600H0V500Z"/>
</mask>
<path d="M100 600V602H102V600H100ZM100 500H98V600H100H102V500H100ZM100 600V598H0V600V602H100V600Z" fill="#FF7626" mask="url(#path-11-inside-6_16_4)"/>
<mask id="path-13-inside-7_16_4" fill="white">
<path d="M0 600H100V700H0V600Z"/>
</mask>
<path d="M100 700V702H102V700H100ZM100 600H98V700H100H102V600H100ZM100 700V698H0V700V702H100V700Z" fill="#FF7626" mask="url(#path-13-inside-7_16_4)"/>
<mask id="path-15-inside-8_16_4" fill="white">
<path d="M0 700H100V800H0V700Z"/>
</mask>
<path d="M100 800V802H102V800H100ZM100 700H98V800H100H102V700H100ZM100 800V798H0V800V802H100V800Z" fill="#FF7626" mask="url(#path-15-inside-8_16_4)"/>
<mask id="path-17-inside-9_16_4" fill="white">
<path d="M0 800H100V900H0V800Z"/>
</mask>
<path d="M100 900V902H102V900H100ZM100 800H98V900H100H102V800H100ZM100 900V898H0V900V902H100V900Z" fill="#FF7626" mask="url(#path-17-inside-9_16_4)"/>
<mask id="path-19-inside-10_16_4" fill="white">
<path d="M0 900H100V1000H0V900Z"/>
</mask>
<path d="M100 1000V1002H102V1000H100ZM100 900H98V1000H100H102V900H100ZM100 1000V998H0V1000V1002H100V1000Z" fill="#FF7626" mask="url(#path-19-inside-10_16_4)"/>
<mask id="path-21-inside-11_16_4" fill="white">
<path d="M0 1000H100V1100H0V1000Z"/>
</mask>
<path d="M100 1100V1102H102V1100H100ZM100 1000H98V1100H100H102V1000H100ZM100 1100V1098H0V1100V1102H100V1100Z" fill="#FF7626" mask="url(#path-21-inside-11_16_4)"/>
<mask id="path-23-inside-12_16_4" fill="white">
<path d="M0 1100H100V1200H0V1100Z"/>
</mask>
<path d="M100 1200V1202H102V1200H100ZM100 1100H98V1200H100H102V1100H100ZM100 1200V1198H0V1200V1202H100V1200Z" fill="#FF7626" mask="url(#path-23-inside-12_16_4)"/>
<mask id="path-25-inside-13_16_4" fill="white">
<path d="M0 1200H100V1300H0V1200Z"/>
</mask>
<path d="M100 1300V1302H102V1300H100ZM100 1200H98V1300H100H102V1200H100ZM100 1300V1298H0V1300V1302H100V1300Z" fill="#FF7626" mask="url(#path-25-inside-13_16_4)"/>
<mask id="path-27-inside-14_16_4" fill="white">
<path d="M0 1300H100V1400H0V1300Z"/>
</mask>
<path d="M100 1400V1402H102V1400H100ZM100 1300H98V1400H100H102V1300H100ZM100 1400V1398H0V1400V1402H100V1400Z" fill="#FF7626" mask="url(#path-27-inside-14_16_4)"/>
<mask id="path-29-inside-15_16_4" fill="white">
<path d="M100 0H200V100H100V0Z"/>
</mask>
<path d="M200 100V102H202V100H200ZM200 0H198V100H200H202V0H200ZM200 100V98H100V100V102H200V100Z" fill="#FF7626" mask="url(#path-29-inside-15_16_4)"/>
<mask id="path-31-inside-16_16_4" fill="white">
<path d="M100 100H200V200H100V100Z"/>
</mask>
<path d="M200 200V202H202V200H200ZM200 100H198V200H200H202V100H200ZM200 200V198H100V200V202H200V200Z" fill="#FF7626" mask="url(#path-31-inside-16_16_4)"/>
<mask id="path-33-inside-17_16_4" fill="white">
<path d="M100 200H200V300H100V200Z"/>
</mask>
<path d="M200 300V302H202V300H200ZM200 200H198V300H200H202V200H200ZM200 300V298H100V300V302H200V300Z" fill="#FF7626" mask="url(#path-33-inside-17_16_4)"/>
<mask id="path-35-inside-18_16_4" fill="white">
<path d="M100 300H200V400H100V300Z"/>
</mask>
<path d="M200 400V402H202V400H200ZM200 300H198V400H200H202V300H200ZM200 400V398H100V400V402H200V400Z" fill="#FF7626" mask="url(#path-35-inside-18_16_4)"/>
<mask id="path-37-inside-19_16_4" fill="white">
<path d="M100 400H200V500H100V400Z"/>
</mask>
<path d="M200 500V502H202V500H200ZM200 400H198V500H200H202V400H200ZM200 500V498H100V500V502H200V500Z" fill="#FF7626" mask="url(#path-37-inside-19_16_4)"/>
<mask id="path-39-inside-20_16_4" fill="white">
<path d="M100 500H200V600H100V500Z"/>
</mask>
<path d="M200 600V602H202V600H200ZM200 500H198V600H200H202V500H200ZM200 600V598H100V600V602H200V600Z" fill="#FF7626" mask="url(#path-39-inside-20_16_4)"/>
<mask id="path-41-inside-21_16_4" fill="white">
<path d="M100 600H200V700H100V600Z"/>
</mask>
<path d="M200 700V702H202V700H200ZM200 600H198V700H200H202V600H200ZM200 700V698H100V700V702H200V700Z" fill="#FF7626" mask="url(#path-41-inside-21_16_4)"/>
<mask id="path-43-inside-22_16_4" fill="white">
<path d="M100 700H200V800H100V700Z"/>
</mask>
<path d="M200 800V802H202V800H200ZM200 700H198V800H200H202V700H200ZM200 800V798H100V800V802H200V800Z" fill="#FF7626" mask="url(#path-43-inside-22_16_4)"/>
<mask id="path-45-inside-23_16_4" fill="white">
<path d="M100 800H200V900H100V800Z"/>
</mask>
<path d="M200 900V902H202V900H200ZM200 800H198V900H200H202V800H200ZM200 900V898H100V900V902H200V900Z" fill="#FF7626" mask="url(#path-45-inside-23_16_4)"/>
<mask id="path-47-inside-24_16_4" fill="white">
<path d="M100 900H200V1000H100V900Z"/>
</mask>
<path d="M200 1000V1002H202V1000H200ZM200 900H198V1000H200H202V900H200ZM200 1000V998H100V1000V1002H200V1000Z" fill="#FF7626" mask="url(#path-47-inside-24_16_4)"/>
<mask id="path-49-inside-25_16_4" fill="white">
<path d="M100 1000H200V1100H100V1000Z"/>
</mask>
<path d="M200 1100V1102H202V1100H200ZM200 1000H198V1100H200H202V1000H200ZM200 1100V1098H100V1100V1102H200V1100Z" fill="#FF7626" mask="url(#path-49-inside-25_16_4)"/>
<mask id="path-51-inside-26_16_4" fill="white">
<path d="M100 1100H200V1200H100V1100Z"/>
</mask>
<path d="M200 1200V1202H202V1200H200ZM200 1100H198V1200H200H202V1100H200ZM200 1200V1198H100V1200V1202H200V1200Z" fill="#FF7626" mask="url(#path-51-inside-26_16_4)"/>
<mask id="path-53-inside-27_16_4" fill="white">
<path d="M100 1200H200V1300H100V1200Z"/>
</mask>
<path d="M200 1300V1302H202V1300H200ZM200 1200H198V1300H200H202V1200H200ZM200 1300V1298H100V1300V1302H200V1300Z" fill="#FF7626" mask="url(#path-53-inside-27_16_4)"/>
<mask id="path-55-inside-28_16_4" fill="white">
<path d="M100 1300H200V1400H100V1300Z"/>
</mask>
<path d="M200 1400V1402H202V1400H200ZM200 1300H198V1400H200H202V1300H200ZM200 1400V1398H100V1400V1402H200V1400Z" fill="#FF7626" mask="url(#path-55-inside-28_16_4)"/>
<mask id="path-57-inside-29_16_4" fill="white">
<path d="M200 0H300V100H200V0Z"/>
</mask>
<path d="M300 100V102H302V100H300ZM300 0H298V100H300H302V0H300ZM300 100V98H200V100V102H300V100Z" fill="#FF7626" mask="url(#path-57-inside-29_16_4)"/>
<mask id="path-59-inside-30_16_4" fill="white">
<path d="M200 100H300V200H200V100Z"/>
</mask>
<path d="M300 200V202H302V200H300ZM300 100H298V200H300H302V100H300ZM300 200V198H200V200V202H300V200Z" fill="#FF7626" mask="url(#path-59-inside-30_16_4)"/>
<mask id="path-61-inside-31_16_4" fill="white">
<path d="M200 200H300V300H200V200Z"/>
</mask>
<path d="M300 300V302H302V300H300ZM300 200H298V300H300H302V200H300ZM300 300V298H200V300V302H300V300Z" fill="#FF7626" mask="url(#path-61-inside-31_16_4)"/>
<mask id="path-63-inside-32_16_4" fill="white">
<path d="M200 300H300V400H200V300Z"/>
</mask>
<path d="M300 400V402H302V400H300ZM300 300H298V400H300H302V300H300ZM300 400V398H200V400V402H300V400Z" fill="#FF7626" mask="url(#path-63-inside-32_16_4)"/>
<mask id="path-65-inside-33_16_4" fill="white">
<path d="M200 400H300V500H200V400Z"/>
</mask>
<path d="M300 500V502H302V500H300ZM300 400H298V500H300H302V400H300ZM300 500V498H200V500V502H300V500Z" fill="#FF7626" mask="url(#path-65-inside-33_16_4)"/>
<mask id="path-67-inside-34_16_4" fill="white">
<path d="M200 500H300V600H200V500Z"/>
</mask>
<path d="M300 600V602H302V600H300ZM300 500H298V600H300H302V500H300ZM300 600V598H200V600V602H300V600Z" fill="#FF7626" mask="url(#path-67-inside-34_16_4)"/>
<mask id="path-69-inside-35_16_4" fill="white">
<path d="M200 600H300V700H200V600Z"/>
</mask>
<path d="M300 700V702H302V700H300ZM300 600H298V700H300H302V600H300ZM300 700V698H200V700V702H300V700Z" fill="#FF7626" mask="url(#path-69-inside-35_16_4)"/>
<mask id="path-71-inside-36_16_4" fill="white">
<path d="M200 700H300V800H200V700Z"/>
</mask>
<path d="M300 800V802H302V800H300ZM300 700H298V800H300H302V700H300ZM300 800V798H200V800V802H300V800Z" fill="#FF7626" mask="url(#path-71-inside-36_16_4)"/>
<mask id="path-73-inside-37_16_4" fill="white">
<path d="M200 800H300V900H200V800Z"/>
</mask>
<path d="M300 900V902H302V900H300ZM300 800H298V900H300H302V800H300ZM300 900V898H200V900V902H300V900Z" fill="#FF7626" mask="url(#path-73-inside-37_16_4)"/>
<mask id="path-75-inside-38_16_4" fill="white">
<path d="M200 900H300V1000H200V900Z"/>
</mask>
<path d="M300 1000V1002H302V1000H300ZM300 900H298V1000H300H302V900H300ZM300 1000V998H200V1000V1002H300V1000Z" fill="#FF7626" mask="url(#path-75-inside-38_16_4)"/>
<mask id="path-77-inside-39_16_4" fill="white">
<path d="M200 1000H300V1100H200V1000Z"/>
</mask>
<path d="M300 1100V1102H302V1100H300ZM300 1000H298V1100H300H302V1000H300ZM300 1100V1098H200V1100V1102H300V1100Z" fill="#FF7626" mask="url(#path-77-inside-39_16_4)"/>
<mask id="path-79-inside-40_16_4" fill="white">
<path d="M200 1100H300V1200H200V1100Z"/>
</mask>
<path d="M300 1200V1202H302V1200H300ZM300 1100H298V1200H300H302V1100H300ZM300 1200V1198H200V1200V1202H300V1200Z" fill="#FF7626" mask="url(#path-79-inside-40_16_4)"/>
<mask id="path-81-inside-41_16_4" fill="white">
<path d="M200 1200H300V1300H200V1200Z"/>
</mask>
<path d="M300 1300V1302H302V1300H300ZM300 1200H298V1300H300H302V1200H300ZM300 1300V1298H200V1300V1302H300V1300Z" fill="#FF7626" mask="url(#path-81-inside-41_16_4)"/>
<mask id="path-83-inside-42_16_4" fill="white">
<path d="M200 1300H300V1400H200V1300Z"/>
</mask>
<path d="M300 1400V1402H302V1400H300ZM300 1300H298V1400H300H302V1300H300ZM300 1400V1398H200V1400V1402H300V1400Z" fill="#FF7626" mask="url(#path-83-inside-42_16_4)"/>
<mask id="path-85-inside-43_16_4" fill="white">
<path d="M300 0H400V100H300V0Z"/>
</mask>
<path d="M400 100V102H402V100H400ZM400 0H398V100H400H402V0H400ZM400 100V98H300V100V102H400V100Z" fill="#FF7626" mask="url(#path-85-inside-43_16_4)"/>
<mask id="path-87-inside-44_16_4" fill="white">
<path d="M300 100H400V200H300V100Z"/>
</mask>
<path d="M400 200V202H402V200H400ZM400 100H398V200H400H402V100H400ZM400 200V198H300V200V202H400V200Z" fill="#FF7626" mask="url(#path-87-inside-44_16_4)"/>
<mask id="path-89-inside-45_16_4" fill="white">
<path d="M300 200H400V300H300V200Z"/>
</mask>
<path d="M400 300V302H402V300H400ZM400 200H398V300H400H402V200H400ZM400 300V298H300V300V302H400V300Z" fill="#FF7626" mask="url(#path-89-inside-45_16_4)"/>
<mask id="path-91-inside-46_16_4" fill="white">
<path d="M300 300H400V400H300V300Z"/>
</mask>
<path d="M400 400V402H402V400H400ZM400 300H398V400H400H402V300H400ZM400 400V398H300V400V402H400V400Z" fill="#FF7626" mask="url(#path-91-inside-46_16_4)"/>
<mask id="path-93-inside-47_16_4" fill="white">
<path d="M300 400H400V500H300V400Z"/>
</mask>
<path d="M400 500V502H402V500H400ZM400 400H398V500H400H402V400H400ZM400 500V498H300V500V502H400V500Z" fill="#FF7626" mask="url(#path-93-inside-47_16_4)"/>
<mask id="path-95-inside-48_16_4" fill="white">
<path d="M300 500H400V600H300V500Z"/>
</mask>
<path d="M400 600V602H402V600H400ZM400 500H398V600H400H402V500H400ZM400 600V598H300V600V602H400V600Z" fill="#FF7626" mask="url(#path-95-inside-48_16_4)"/>
<mask id="path-97-inside-49_16_4" fill="white">
<path d="M300 600H400V700H300V600Z"/>
</mask>
<path d="M400 700V702H402V700H400ZM400 600H398V700H400H402V600H400ZM400 700V698H300V700V702H400V700Z" fill="#FF7626" mask="url(#path-97-inside-49_16_4)"/>
<mask id="path-99-inside-50_16_4" fill="white">
<path d="M300 700H400V800H300V700Z"/>
</mask>
<path d="M400 800V802H402V800H400ZM400 700H398V800H400H402V700H400ZM400 800V798H300V800V802H400V800Z" fill="#FF7626" mask="url(#path-99-inside-50_16_4)"/>
<mask id="path-101-inside-51_16_4" fill="white">
<path d="M300 800H400V900H300V800Z"/>
</mask>
<path d="M400 900V902H402V900H400ZM400 800H398V900H400H402V800H400ZM400 900V898H300V900V902H400V900Z" fill="#FF7626" mask="url(#path-101-inside-51_16_4)"/>
<mask id="path-103-inside-52_16_4" fill="white">
<path d="M300 900H400V1000H300V900Z"/>
</mask>
<path d="M400 1000V1002H402V1000H400ZM400 900H398V1000H400H402V900H400ZM400 1000V998H300V1000V1002H400V1000Z" fill="#FF7626" mask="url(#path-103-inside-52_16_4)"/>
<mask id="path-105-inside-53_16_4" fill="white">
<path d="M300 1000H400V1100H300V1000Z"/>
</mask>
<path d="M400 1100V1102H402V1100H400ZM400 1000H398V1100H400H402V1000H400ZM400 1100V1098H300V1100V1102H400V1100Z" fill="#FF7626" mask="url(#path-105-inside-53_16_4)"/>
<mask id="path-107-inside-54_16_4" fill="white">
<path d="M300 1100H400V1200H300V1100Z"/>
</mask>
<path d="M400 1200V1202H402V1200H400ZM400 1100H398V1200H400H402V1100H400ZM400 1200V1198H300V1200V1202H400V1200Z" fill="#FF7626" mask="url(#path-107-inside-54_16_4)"/>
<mask id="path-109-inside-55_16_4" fill="white">
<path d="M300 1200H400V1300H300V1200Z"/>
</mask>
<path d="M400 1300V1302H402V1300H400ZM400 1200H398V1300H400H402V1200H400ZM400 1300V1298H300V1300V1302H400V1300Z" fill="#FF7626" mask="url(#path-109-inside-55_16_4)"/>
<mask id="path-111-inside-56_16_4" fill="white">
<path d="M300 1300H400V1400H300V1300Z"/>
</mask>
<path d="M400 1400V1402H402V1400H400ZM400 1300H398V1400H400H402V1300H400ZM400 1400V1398H300V1400V1402H400V1400Z" fill="#FF7626" mask="url(#path-111-inside-56_16_4)"/>
<mask id="path-113-inside-57_16_4" fill="white">
<path d="M400 0H500V100H400V0Z"/>
</mask>
<path d="M500 100V102H502V100H500ZM500 0H498V100H500H502V0H500ZM500 100V98H400V100V102H500V100Z" fill="#FF7626" mask="url(#path-113-inside-57_16_4)"/>
<mask id="path-115-inside-58_16_4" fill="white">
<path d="M400 100H500V200H400V100Z"/>
</mask>
<path d="M500 200V202H502V200H500ZM500 100H498V200H500H502V100H500ZM500 200V198H400V200V202H500V200Z" fill="#FF7626" mask="url(#path-115-inside-58_16_4)"/>
<mask id="path-117-inside-59_16_4" fill="white">
<path d="M400 200H500V300H400V200Z"/>
</mask>
<path d="M500 300V302H502V300H500ZM500 200H498V300H500H502V200H500ZM500 300V298H400V300V302H500V300Z" fill="#FF7626" mask="url(#path-117-inside-59_16_4)"/>
<mask id="path-119-inside-60_16_4" fill="white">
<path d="M400 300H500V400H400V300Z"/>
</mask>
<path d="M500 400V402H502V400H500ZM500 300H498V400H500H502V300H500ZM500 400V398H400V400V402H500V400Z" fill="#FF7626" mask="url(#path-119-inside-60_16_4)"/>
<mask id="path-121-inside-61_16_4" fill="white">
<path d="M400 400H500V500H400V400Z"/>
</mask>
<path d="M500 500V502H502V500H500ZM500 400H498V500H500H502V400H500ZM500 500V498H400V500V502H500V500Z" fill="#FF7626" mask="url(#path-121-inside-61_16_4)"/>
<mask id="path-123-inside-62_16_4" fill="white">
<path d="M400 500H500V600H400V500Z"/>
</mask>
<path d="M500 600V602H502V600H500ZM500 500H498V600H500H502V500H500ZM500 600V598H400V600V602H500V600Z" fill="#FF7626" mask="url(#path-123-inside-62_16_4)"/>
<mask id="path-125-inside-63_16_4" fill="white">
<path d="M400 600H500V700H400V600Z"/>
</mask>
<path d="M500 700V702H502V700H500ZM500 600H498V700H500H502V600H500ZM500 700V698H400V700V702H500V700Z" fill="#FF7626" mask="url(#path-125-inside-63_16_4)"/>
<mask id="path-127-inside-64_16_4" fill="white">
<path d="M400 700H500V800H400V700Z"/>
</mask>
<path d="M500 800V802H502V800H500ZM500 700H498V800H500H502V700H500ZM500 800V798H400V800V802H500V800Z" fill="#FF7626" mask="url(#path-127-inside-64_16_4)"/>
<mask id="path-129-inside-65_16_4" fill="white">
<path d="M400 800H500V900H400V800Z"/>
</mask>
<path d="M500 900V902H502V900H500ZM500 800H498V900H500H502V800H500ZM500 900V898H400V900V902H500V900Z" fill="#FF7626" mask="url(#path-129-inside-65_16_4)"/>
<mask id="path-131-inside-66_16_4" fill="white">
<path d="M400 900H500V1000H400V900Z"/>
</mask>
<path d="M500 1000V1002H502V1000H500ZM500 900H498V1000H500H502V900H500ZM500 1000V998H400V1000V1002H500V1000Z" fill="#FF7626" mask="url(#path-131-inside-66_16_4)"/>
<mask id="path-133-inside-67_16_4" fill="white">
<path d="M400 1000H500V1100H400V1000Z"/>
</mask>
<path d="M500 1100V1102H502V1100H500ZM500 1000H498V1100H500H502V1000H500ZM500 1100V1098H400V1100V1102H500V1100Z" fill="#FF7626" mask="url(#path-133-inside-67_16_4)"/>
<mask id="path-135-inside-68_16_4" fill="white">
<path d="M400 1100H500V1200H400V1100Z"/>
</mask>
<path d="M500 1200V1202H502V1200H500ZM500 1100H498V1200H500H502V1100H500ZM500 1200V1198H400V1200V1202H500V1200Z" fill="#FF7626" mask="url(#path-135-inside-68_16_4)"/>
<mask id="path-137-inside-69_16_4" fill="white">
<path d="M400 1200H500V1300H400V1200Z"/>
</mask>
<path d="M500 1300V1302H502V1300H500ZM500 1200H498V1300H500H502V1200H500ZM500 1300V1298H400V1300V1302H500V1300Z" fill="#FF7626" mask="url(#path-137-inside-69_16_4)"/>
<mask id="path-139-inside-70_16_4" fill="white">
<path d="M400 1300H500V1400H400V1300Z"/>
</mask>
<path d="M500 1400V1402H502V1400H500ZM500 1300H498V1400H500H502V1300H500ZM500 1400V1398H400V1400V1402H500V1400Z" fill="#FF7626" mask="url(#path-139-inside-70_16_4)"/>
<mask id="path-141-inside-71_16_4" fill="white">
<path d="M500 0H600V100H500V0Z"/>
</mask>
<path d="M600 100V102H602V100H600ZM600 0H598V100H600H602V0H600ZM600 100V98H500V100V102H600V100Z" fill="#FF7626" mask="url(#path-141-inside-71_16_4)"/>
<mask id="path-143-inside-72_16_4" fill="white">
<path d="M500 100H600V200H500V100Z"/>
</mask>
<path d="M600 200V202H602V200H600ZM600 100H598V200H600H602V100H600ZM600 200V198H500V200V202H600V200Z" fill="#FF7626" mask="url(#path-143-inside-72_16_4)"/>
<mask id="path-145-inside-73_16_4" fill="white">
<path d="M500 200H600V300H500V200Z"/>
</mask>
<path d="M600 300V302H602V300H600ZM600 200H598V300H600H602V200H600ZM600 300V298H500V300V302H600V300Z" fill="#FF7626" mask="url(#path-145-inside-73_16_4)"/>
<mask id="path-147-inside-74_16_4" fill="white">
<path d="M500 300H600V400H500V300Z"/>
</mask>
<path d="M600 400V402H602V400H600ZM600 300H598V400H600H602V300H600ZM600 400V398H500V400V402H600V400Z" fill="#FF7626" mask="url(#path-147-inside-74_16_4)"/>
<mask id="path-149-inside-75_16_4" fill="white">
<path d="M500 400H600V500H500V400Z"/>
</mask>
<path d="M600 500V502H602V500H600ZM600 400H598V500H600H602V400H600ZM600 500V498H500V500V502H600V500Z" fill="#FF7626" mask="url(#path-149-inside-75_16_4)"/>
<mask id="path-151-inside-76_16_4" fill="white">
<path d="M500 500H600V600H500V500Z"/>
</mask>
<path d="M600 600V602H602V600H600ZM600 500H598V600H600H602V500H600ZM600 600V598H500V600V602H600V600Z" fill="#FF7626" mask="url(#path-151-inside-76_16_4)"/>
<mask id="path-153-inside-77_16_4" fill="white">
<path d="M500 600H600V700H500V600Z"/>
</mask>
<path d="M600 700V702H602V700H600ZM600 600H598V700H600H602V600H600ZM600 700V698H500V700V702H600V700Z" fill="#FF7626" mask="url(#path-153-inside-77_16_4)"/>
<mask id="path-155-inside-78_16_4" fill="white">
<path d="M500 700H600V800H500V700Z"/>
</mask>
<path d="M600 800V802H602V800H600ZM600 700H598V800H600H602V700H600ZM600 800V798H500V800V802H600V800Z" fill="#FF7626" mask="url(#path-155-inside-78_16_4)"/>
<mask id="path-157-inside-79_16_4" fill="white">
<path d="M500 800H600V900H500V800Z"/>
</mask>
<path d="M600 900V902H602V900H600ZM600 800H598V900H600H602V800H600ZM600 900V898H500V900V902H600V900Z" fill="#FF7626" mask="url(#path-157-inside-79_16_4)"/>
<mask id="path-159-inside-80_16_4" fill="white">
<path d="M500 900H600V1000H500V900Z"/>
</mask>
<path d="M600 1000V1002H602V1000H600ZM600 900H598V1000H600H602V900H600ZM600 1000V998H500V1000V1002H600V1000Z" fill="#FF7626" mask="url(#path-159-inside-80_16_4)"/>
<mask id="path-161-inside-81_16_4" fill="white">
<path d="M500 1000H600V1100H500V1000Z"/>
</mask>
<path d="M600 1100V1102H602V1100H600ZM600 1000H598V1100H600H602V1000H600ZM600 1100V1098H500V1100V1102H600V1100Z" fill="#FF7626" mask="url(#path-161-inside-81_16_4)"/>
<mask id="path-163-inside-82_16_4" fill="white">
<path d="M500 1100H600V1200H500V1100Z"/>
</mask>
<path d="M600 1200V1202H602V1200H600ZM600 1100H598V1200H600H602V1100H600ZM600 1200V1198H500V1200V1202H600V1200Z" fill="#FF7626" mask="url(#path-163-inside-82_16_4)"/>
<mask id="path-165-inside-83_16_4" fill="white">
<path d="M500 1200H600V1300H500V1200Z"/>
</mask>
<path d="M600 1300V1302H602V1300H600ZM600 1200H598V1300H600H602V1200H600ZM600 1300V1298H500V1300V1302H600V1300Z" fill="#FF7626" mask="url(#path-165-inside-83_16_4)"/>
<mask id="path-167-inside-84_16_4" fill="white">
<path d="M500 1300H600V1400H500V1300Z"/>
</mask>
<path d="M600 1400V1402H602V1400H600ZM600 1300H598V1400H600H602V1300H600ZM600 1400V1398H500V1400V1402H600V1400Z" fill="#FF7626" mask="url(#path-167-inside-84_16_4)"/>
<mask id="path-169-inside-85_16_4" fill="white">
<path d="M600 0H700V100H600V0Z"/>
</mask>
<path d="M700 100V102H702V100H700ZM700 0H698V100H700H702V0H700ZM700 100V98H600V100V102H700V100Z" fill="#FF7626" mask="url(#path-169-inside-85_16_4)"/>
<mask id="path-171-inside-86_16_4" fill="white">
<path d="M600 100H700V200H600V100Z"/>
</mask>
<path d="M700 200V202H702V200H700ZM700 100H698V200H700H702V100H700ZM700 200V198H600V200V202H700V200Z" fill="#FF7626" mask="url(#path-171-inside-86_16_4)"/>
<mask id="path-173-inside-87_16_4" fill="white">
<path d="M600 200H700V300H600V200Z"/>
</mask>
<path d="M700 300V302H702V300H700ZM700 200H698V300H700H702V200H700ZM700 300V298H600V300V302H700V300Z" fill="#FF7626" mask="url(#path-173-inside-87_16_4)"/>
<mask id="path-175-inside-88_16_4" fill="white">
<path d="M600 300H700V400H600V300Z"/>
</mask>
<path d="M700 400V402H702V400H700ZM700 300H698V400H700H702V300H700ZM700 400V398H600V400V402H700V400Z" fill="#FF7626" mask="url(#path-175-inside-88_16_4)"/>
<mask id="path-177-inside-89_16_4" fill="white">
<path d="M600 400H700V500H600V400Z"/>
</mask>
<path d="M700 500V502H702V500H700ZM700 400H698V500H700H702V400H700ZM700 500V498H600V500V502H700V500Z" fill="#FF7626" mask="url(#path-177-inside-89_16_4)"/>
<mask id="path-179-inside-90_16_4" fill="white">
<path d="M600 500H700V600H600V500Z"/>
</mask>
<path d="M700 600V602H702V600H700ZM700 500H698V600H700H702V500H700ZM700 600V598H600V600V602H700V600Z" fill="#FF7626" mask="url(#path-179-inside-90_16_4)"/>
<mask id="path-181-inside-91_16_4" fill="white">
<path d="M600 600H700V700H600V600Z"/>
</mask>
<path d="M700 700V702H702V700H700ZM700 600H698V700H700H702V600H700ZM700 700V698H600V700V702H700V700Z" fill="#FF7626" mask="url(#path-181-inside-91_16_4)"/>
<mask id="path-183-inside-92_16_4" fill="white">
<path d="M600 700H700V800H600V700Z"/>
</mask>
<path d="M700 800V802H702V800H700ZM700 700H698V800H700H702V700H700ZM700 800V798H600V800V802H700V800Z" fill="#FF7626" mask="url(#path-183-inside-92_16_4)"/>
<mask id="path-185-inside-93_16_4" fill="white">
<path d="M600 800H700V900H600V800Z"/>
</mask>
<path d="M700 900V902H702V900H700ZM700 800H698V900H700H702V800H700ZM700 900V898H600V900V902H700V900Z" fill="#FF7626" mask="url(#path-185-inside-93_16_4)"/>
<mask id="path-187-inside-94_16_4" fill="white">
<path d="M600 900H700V1000H600V900Z"/>
</mask>
<path d="M700 1000V1002H702V1000H700ZM700 900H698V1000H700H702V900H700ZM700 1000V998H600V1000V1002H700V1000Z" fill="#FF7626" mask="url(#path-187-inside-94_16_4)"/>
<mask id="path-189-inside-95_16_4" fill="white">
<path d="M600 1000H700V1100H600V1000Z"/>
</mask>
<path d="M700 1100V1102H702V1100H700ZM700 1000H698V1100H700H702V1000H700ZM700 1100V1098H600V1100V1102H700V1100Z" fill="#FF7626" mask="url(#path-189-inside-95_16_4)"/>
<mask id="path-191-inside-96_16_4" fill="white">
<path d="M600 1100H700V1200H600V1100Z"/>
</mask>
<path d="M700 1200V1202H702V1200H700ZM700 1100H698V1200H700H702V1100H700ZM700 1200V1198H600V1200V1202H700V1200Z" fill="#FF7626" mask="url(#path-191-inside-96_16_4)"/>
<mask id="path-193-inside-97_16_4" fill="white">
<path d="M600 1200H700V1300H600V1200Z"/>
</mask>
<path d="M700 1300V1302H702V1300H700ZM700 1200H698V1300H700H702V1200H700ZM700 1300V1298H600V1300V1302H700V1300Z" fill="#FF7626" mask="url(#path-193-inside-97_16_4)"/>
<mask id="path-195-inside-98_16_4" fill="white">
<path d="M600 1300H700V1400H600V1300Z"/>
</mask>
<path d="M700 1400V1402H702V1400H700ZM700 1300H698V1400H700H702V1300H700ZM700 1400V1398H600V1400V1402H700V1400Z" fill="#FF7626" mask="url(#path-195-inside-98_16_4)"/>
<mask id="path-197-inside-99_16_4" fill="white">
<path d="M700 0H800V100H700V0Z"/>
</mask>
<path d="M800 100V102H802V100H800ZM800 0H798V100H800H802V0H800ZM800 100V98H700V100V102H800V100Z" fill="#FF7626" mask="url(#path-197-inside-99_16_4)"/>
<mask id="path-199-inside-100_16_4" fill="white">
<path d="M700 100H800V200H700V100Z"/>
</mask>
<path d="M800 200V202H802V200H800ZM800 100H798V200H800H802V100H800ZM800 200V198H700V200V202H800V200Z" fill="#FF7626" mask="url(#path-199-inside-100_16_4)"/>
<mask id="path-201-inside-101_16_4" fill="white">
<path d="M700 200H800V300H700V200Z"/>
</mask>
<path d="M800 300V302H802V300H800ZM800 200H798V300H800H802V200H800ZM800 300V298H700V300V302H800V300Z" fill="#FF7626" mask="url(#path-201-inside-101_16_4)"/>
<mask id="path-203-inside-102_16_4" fill="white">
<path d="M700 300H800V400H700V300Z"/>
</mask>
<path d="M800 400V402H802V400H800ZM800 300H798V400H800H802V300H800ZM800 400V398H700V400V402H800V400Z" fill="#FF7626" mask="url(#path-203-inside-102_16_4)"/>
<mask id="path-205-inside-103_16_4" fill="white">
<path d="M700 400H800V500H700V400Z"/>
</mask>
<path d="M800 500V502H802V500H800ZM800 400H798V500H800H802V400H800ZM800 500V498H700V500V502H800V500Z" fill="#FF7626" mask="url(#path-205-inside-103_16_4)"/>
<mask id="path-207-inside-104_16_4" fill="white">
<path d="M700 500H800V600H700V500Z"/>
</mask>
<path d="M800 600V602H802V600H800ZM800 500H798V600H800H802V500H800ZM800 600V598H700V600V602H800V600Z" fill="#FF7626" mask="url(#path-207-inside-104_16_4)"/>
<mask id="path-209-inside-105_16_4" fill="white">
<path d="M700 600H800V700H700V600Z"/>
</mask>
<path d="M800 700V702H802V700H800ZM800 600H798V700H800H802V600H800ZM800 700V698H700V700V702H800V700Z" fill="#FF7626" mask="url(#path-209-inside-105_16_4)"/>
<mask id="path-211-inside-106_16_4" fill="white">
<path d="M700 700H800V800H700V700Z"/>
</mask>
<path d="M800 800V802H802V800H800ZM800 700H798V800H800H802V700H800ZM800 800V798H700V800V802H800V800Z" fill="#FF7626" mask="url(#path-211-inside-106_16_4)"/>
<mask id="path-213-inside-107_16_4" fill="white">
<path d="M700 800H800V900H700V800Z"/>
</mask>
<path d="M800 900V902H802V900H800ZM800 800H798V900H800H802V800H800ZM800 900V898H700V900V902H800V900Z" fill="#FF7626" mask="url(#path-213-inside-107_16_4)"/>
<mask id="path-215-inside-108_16_4" fill="white">
<path d="M700 900H800V1000H700V900Z"/>
</mask>
<path d="M800 1000V1002H802V1000H800ZM800 900H798V1000H800H802V900H800ZM800 1000V998H700V1000V1002H800V1000Z" fill="#FF7626" mask="url(#path-215-inside-108_16_4)"/>
<mask id="path-217-inside-109_16_4" fill="white">
<path d="M700 1000H800V1100H700V1000Z"/>
</mask>
<path d="M800 1100V1102H802V1100H800ZM800 1000H798V1100H800H802V1000H800ZM800 1100V1098H700V1100V1102H800V1100Z" fill="#FF7626" mask="url(#path-217-inside-109_16_4)"/>
<mask id="path-219-inside-110_16_4" fill="white">
<path d="M700 1100H800V1200H700V1100Z"/>
</mask>
<path d="M800 1200V1202H802V1200H800ZM800 1100H798V1200H800H802V1100H800ZM800 1200V1198H700V1200V1202H800V1200Z" fill="#FF7626" mask="url(#path-219-inside-110_16_4)"/>
<mask id="path-221-inside-111_16_4" fill="white">
<path d="M700 1200H800V1300H700V1200Z"/>
</mask>
<path d="M800 1300V1302H802V1300H800ZM800 1200H798V1300H800H802V1200H800ZM800 1300V1298H700V1300V1302H800V1300Z" fill="#FF7626" mask="url(#path-221-inside-111_16_4)"/>
<mask id="path-223-inside-112_16_4" fill="white">
<path d="M700 1300H800V1400H700V1300Z"/>
</mask>
<path d="M800 1400V1402H802V1400H800ZM800 1300H798V1400H800H802V1300H800ZM800 1400V1398H700V1400V1402H800V1400Z" fill="#FF7626" mask="url(#path-223-inside-112_16_4)"/>
<mask id="path-225-inside-113_16_4" fill="white">
<path d="M800 0H900V100H800V0Z"/>
</mask>
<path d="M900 100V102H902V100H900ZM900 0H898V100H900H902V0H900ZM900 100V98H800V100V102H900V100Z" fill="#FF7626" mask="url(#path-225-inside-113_16_4)"/>
<mask id="path-227-inside-114_16_4" fill="white">
<path d="M800 100H900V200H800V100Z"/>
</mask>
<path d="M900 200V202H902V200H900ZM900 100H898V200H900H902V100H900ZM900 200V198H800V200V202H900V200Z" fill="#FF7626" mask="url(#path-227-inside-114_16_4)"/>
<mask id="path-229-inside-115_16_4" fill="white">
<path d="M800 200H900V300H800V200Z"/>
</mask>
<path d="M900 300V302H902V300H900ZM900 200H898V300H900H902V200H900ZM900 300V298H800V300V302H900V300Z" fill="#FF7626" mask="url(#path-229-inside-115_16_4)"/>
<mask id="path-231-inside-116_16_4" fill="white">
<path d="M800 300H900V400H800V300Z"/>
</mask>
<path d="M900 400V402H902V400H900ZM900 300H898V400H900H902V300H900ZM900 400V398H800V400V402H900V400Z" fill="#FF7626" mask="url(#path-231-inside-116_16_4)"/>
<mask id="path-233-inside-117_16_4" fill="white">
<path d="M800 400H900V500H800V400Z"/>
</mask>
<path d="M900 500V502H902V500H900ZM900 400H898V500H900H902V400H900ZM900 500V498H800V500V502H900V500Z" fill="#FF7626" mask="url(#path-233-inside-117_16_4)"/>
<mask id="path-235-inside-118_16_4" fill="white">
<path d="M800 500H900V600H800V500Z"/>
</mask>
<path d="M900 600V602H902V600H900ZM900 500H898V600H900H902V500H900ZM900 600V598H800V600V602H900V600Z" fill="#FF7626" mask="url(#path-235-inside-118_16_4)"/>
<mask id="path-237-inside-119_16_4" fill="white">
<path d="M800 600H900V700H800V600Z"/>
</mask>
<path d="M900 700V702H902V700H900ZM900 600H898V700H900H902V600H900ZM900 700V698H800V700V702H900V700Z" fill="#FF7626" mask="url(#path-237-inside-119_16_4)"/>
<mask id="path-239-inside-120_16_4" fill="white">
<path d="M800 700H900V800H800V700Z"/>
</mask>
<path d="M900 800V802H902V800H900ZM900 700H898V800H900H902V700H900ZM900 800V798H800V800V802H900V800Z" fill="#FF7626" mask="url(#path-239-inside-120_16_4)"/>
<mask id="path-241-inside-121_16_4" fill="white">
<path d="M800 800H900V900H800V800Z"/>
</mask>
<path d="M900 900V902H902V900H900ZM900 800H898V900H900H902V800H900ZM900 900V898H800V900V902H900V900Z" fill="#FF7626" mask="url(#path-241-inside-121_16_4)"/>
<mask id="path-243-inside-122_16_4" fill="white">
<path d="M800 900H900V1000H800V900Z"/>
</mask>
<path d="M900 1000V1002H902V1000H900ZM900 900H898V1000H900H902V900H900ZM900 1000V998H800V1000V1002H900V1000Z" fill="#FF7626" mask="url(#path-243-inside-122_16_4)"/>
<mask id="path-245-inside-123_16_4" fill="white">
<path d="M800 1000H900V1100H800V1000Z"/>
</mask>
<path d="M900 1100V1102H902V1100H900ZM900 1000H898V1100H900H902V1000H900ZM900 1100V1098H800V1100V1102H900V1100Z" fill="#FF7626" mask="url(#path-245-inside-123_16_4)"/>
<mask id="path-247-inside-124_16_4" fill="white">
<path d="M800 1100H900V1200H800V1100Z"/>
</mask>
<path d="M900 1200V1202H902V1200H900ZM900 1100H898V1200H900H902V1100H900ZM900 1200V1198H800V1200V1202H900V1200Z" fill="#FF7626" mask="url(#path-247-inside-124_16_4)"/>
<mask id="path-249-inside-125_16_4" fill="white">
<path d="M800 1200H900V1300H800V1200Z"/>
</mask>
<path d="M900 1300V1302H902V1300H900ZM900 1200H898V1300H900H902V1200H900ZM900 1300V1298H800V1300V1302H900V1300Z" fill="#FF7626" mask="url(#path-249-inside-125_16_4)"/>
<mask id="path-251-inside-126_16_4" fill="white">
<path d="M800 1300H900V1400H800V1300Z"/>
</mask>
<path d="M900 1400V1402H902V1400H900ZM900 1300H898V1400H900H902V1300H900ZM900 1400V1398H800V1400V1402H900V1400Z" fill="#FF7626" mask="url(#path-251-inside-126_16_4)"/>
<mask id="path-253-inside-127_16_4" fill="white">
<path d="M900 0H1000V100H900V0Z"/>
</mask>
<path d="M1000 100V102H1002V100H1000ZM1000 0H998V100H1000H1002V0H1000ZM1000 100V98H900V100V102H1000V100Z" fill="#FF7626" mask="url(#path-253-inside-127_16_4)"/>
<mask id="path-255-inside-128_16_4" fill="white">
<path d="M900 100H1000V200H900V100Z"/>
</mask>
<path d="M1000 200V202H1002V200H1000ZM1000 100H998V200H1000H1002V100H1000ZM1000 200V198H900V200V202H1000V200Z" fill="#FF7626" mask="url(#path-255-inside-128_16_4)"/>
<mask id="path-257-inside-129_16_4" fill="white">
<path d="M900 200H1000V300H900V200Z"/>
</mask>
<path d="M1000 300V302H1002V300H1000ZM1000 200H998V300H1000H1002V200H1000ZM1000 300V298H900V300V302H1000V300Z" fill="#FF7626" mask="url(#path-257-inside-129_16_4)"/>
<mask id="path-259-inside-130_16_4" fill="white">
<path d="M900 300H1000V400H900V300Z"/>
</mask>
<path d="M1000 400V402H1002V400H1000ZM1000 300H998V400H1000H1002V300H1000ZM1000 400V398H900V400V402H1000V400Z" fill="#FF7626" mask="url(#path-259-inside-130_16_4)"/>
<mask id="path-261-inside-131_16_4" fill="white">
<path d="M900 400H1000V500H900V400Z"/>
</mask>
<path d="M1000 500V502H1002V500H1000ZM1000 400H998V500H1000H1002V400H1000ZM1000 500V498H900V500V502H1000V500Z" fill="#FF7626" mask="url(#path-261-inside-131_16_4)"/>
<mask id="path-263-inside-132_16_4" fill="white">
<path d="M900 500H1000V600H900V500Z"/>
</mask>
<path d="M1000 600V602H1002V600H1000ZM1000 500H998V600H1000H1002V500H1000ZM1000 600V598H900V600V602H1000V600Z" fill="#FF7626" mask="url(#path-263-inside-132_16_4)"/>
<mask id="path-265-inside-133_16_4" fill="white">
<path d="M900 600H1000V700H900V600Z"/>
</mask>
<path d="M1000 700V702H1002V700H1000ZM1000 600H998V700H1000H1002V600H1000ZM1000 700V698H900V700V702H1000V700Z" fill="#FF7626" mask="url(#path-265-inside-133_16_4)"/>
<mask id="path-267-inside-134_16_4" fill="white">
<path d="M900 700H1000V800H900V700Z"/>
</mask>
<path d="M1000 800V802H1002V800H1000ZM1000 700H998V800H1000H1002V700H1000ZM1000 800V798H900V800V802H1000V800Z" fill="#FF7626" mask="url(#path-267-inside-134_16_4)"/>
<mask id="path-269-inside-135_16_4" fill="white">
<path d="M900 800H1000V900H900V800Z"/>
</mask>
<path d="M1000 900V902H1002V900H1000ZM1000 800H998V900H1000H1002V800H1000ZM1000 900V898H900V900V902H1000V900Z" fill="#FF7626" mask="url(#path-269-inside-135_16_4)"/>
<mask id="path-271-inside-136_16_4" fill="white">
<path d="M900 900H1000V1000H900V900Z"/>
</mask>
<path d="M1000 1000V1002H1002V1000H1000ZM1000 900H998V1000H1000H1002V900H1000ZM1000 1000V998H900V1000V1002H1000V1000Z" fill="#FF7626" mask="url(#path-271-inside-136_16_4)"/>
<mask id="path-273-inside-137_16_4" fill="white">
<path d="M900 1000H1000V1100H900V1000Z"/>
</mask>
<path d="M1000 1100V1102H1002V1100H1000ZM1000 1000H998V1100H1000H1002V1000H1000ZM1000 1100V1098H900V1100V1102H1000V1100Z" fill="#FF7626" mask="url(#path-273-inside-137_16_4)"/>
<mask id="path-275-inside-138_16_4" fill="white">
<path d="M900 1100H1000V1200H900V1100Z"/>
</mask>
<path d="M1000 1200V1202H1002V1200H1000ZM1000 1100H998V1200H1000H1002V1100H1000ZM1000 1200V1198H900V1200V1202H1000V1200Z" fill="#FF7626" mask="url(#path-275-inside-138_16_4)"/>
<mask id="path-277-inside-139_16_4" fill="white">
<path d="M900 1200H1000V1300H900V1200Z"/>
</mask>
<path d="M1000 1300V1302H1002V1300H1000ZM1000 1200H998V1300H1000H1002V1200H1000ZM1000 1300V1298H900V1300V1302H1000V1300Z" fill="#FF7626" mask="url(#path-277-inside-139_16_4)"/>
<mask id="path-279-inside-140_16_4" fill="white">
<path d="M900 1300H1000V1400H900V1300Z"/>
</mask>
<path d="M1000 1400V1402H1002V1400H1000ZM1000 1300H998V1400H1000H1002V1300H1000ZM1000 1400V1398H900V1400V1402H1000V1400Z" fill="#FF7626" mask="url(#path-279-inside-140_16_4)"/>
<mask id="path-281-inside-141_16_4" fill="white">
<path d="M1000 0H1100V100H1000V0Z"/>
</mask>
<path d="M1100 100V102H1102V100H1100ZM1100 0H1098V100H1100H1102V0H1100ZM1100 100V98H1000V100V102H1100V100Z" fill="#FF7626" mask="url(#path-281-inside-141_16_4)"/>
<mask id="path-283-inside-142_16_4" fill="white">
<path d="M1000 100H1100V200H1000V100Z"/>
</mask>
<path d="M1100 200V202H1102V200H1100ZM1100 100H1098V200H1100H1102V100H1100ZM1100 200V198H1000V200V202H1100V200Z" fill="#FF7626" mask="url(#path-283-inside-142_16_4)"/>
<mask id="path-285-inside-143_16_4" fill="white">
<path d="M1000 200H1100V300H1000V200Z"/>
</mask>
<path d="M1100 300V302H1102V300H1100ZM1100 200H1098V300H1100H1102V200H1100ZM1100 300V298H1000V300V302H1100V300Z" fill="#FF7626" mask="url(#path-285-inside-143_16_4)"/>
<mask id="path-287-inside-144_16_4" fill="white">
<path d="M1000 300H1100V400H1000V300Z"/>
</mask>
<path d="M1100 400V402H1102V400H1100ZM1100 300H1098V400H1100H1102V300H1100ZM1100 400V398H1000V400V402H1100V400Z" fill="#FF7626" mask="url(#path-287-inside-144_16_4)"/>
<mask id="path-289-inside-145_16_4" fill="white">
<path d="M1000 400H1100V500H1000V400Z"/>
</mask>
<path d="M1100 500V502H1102V500H1100ZM1100 400H1098V500H1100H1102V400H1100ZM1100 500V498H1000V500V502H1100V500Z" fill="#FF7626" mask="url(#path-289-inside-145_16_4)"/>
<mask id="path-291-inside-146_16_4" fill="white">
<path d="M1000 500H1100V600H1000V500Z"/>
</mask>
<path d="M1100 600V602H1102V600H1100ZM1100 500H1098V600H1100H1102V500H1100ZM1100 600V598H1000V600V602H1100V600Z" fill="#FF7626" mask="url(#path-291-inside-146_16_4)"/>
<mask id="path-293-inside-147_16_4" fill="white">
<path d="M1000 600H1100V700H1000V600Z"/>
</mask>
<path d="M1100 700V702H1102V700H1100ZM1100 600H1098V700H1100H1102V600H1100ZM1100 700V698H1000V700V702H1100V700Z" fill="#FF7626" mask="url(#path-293-inside-147_16_4)"/>
<mask id="path-295-inside-148_16_4" fill="white">
<path d="M1000 700H1100V800H1000V700Z"/>
</mask>
<path d="M1100 800V802H1102V800H1100ZM1100 700H1098V800H1100H1102V700H1100ZM1100 800V798H1000V800V802H1100V800Z" fill="#FF7626" mask="url(#path-295-inside-148_16_4)"/>
<mask id="path-297-inside-149_16_4" fill="white">
<path d="M1000 800H1100V900H1000V800Z"/>
</mask>
<path d="M1100 900V902H1102V900H1100ZM1100 800H1098V900H1100H1102V800H1100ZM1100 900V898H1000V900V902H1100V900Z" fill="#FF7626" mask="url(#path-297-inside-149_16_4)"/>
<mask id="path-299-inside-150_16_4" fill="white">
<path d="M1000 900H1100V1000H1000V900Z"/>
</mask>
<path d="M1100 1000V1002H1102V1000H1100ZM1100 900H1098V1000H1100H1102V900H1100ZM1100 1000V998H1000V1000V1002H1100V1000Z" fill="#FF7626" mask="url(#path-299-inside-150_16_4)"/>
<mask id="path-301-inside-151_16_4" fill="white">
<path d="M1000 1000H1100V1100H1000V1000Z"/>
</mask>
<path d="M1100 1100V1102H1102V1100H1100ZM1100 1000H1098V1100H1100H1102V1000H1100ZM1100 1100V1098H1000V1100V1102H1100V1100Z" fill="#FF7626" mask="url(#path-301-inside-151_16_4)"/>
<mask id="path-303-inside-152_16_4" fill="white">
<path d="M1000 1100H1100V1200H1000V1100Z"/>
</mask>
<path d="M1100 1200V1202H1102V1200H1100ZM1100 1100H1098V1200H1100H1102V1100H1100ZM1100 1200V1198H1000V1200V1202H1100V1200Z" fill="#FF7626" mask="url(#path-303-inside-152_16_4)"/>
<mask id="path-305-inside-153_16_4" fill="white">
<path d="M1000 1200H1100V1300H1000V1200Z"/>
</mask>
<path d="M1100 1300V1302H1102V1300H1100ZM1100 1200H1098V1300H1100H1102V1200H1100ZM1100 1300V1298H1000V1300V1302H1100V1300Z" fill="#FF7626" mask="url(#path-305-inside-153_16_4)"/>
<mask id="path-307-inside-154_16_4" fill="white">
<path d="M1000 1300H1100V1400H1000V1300Z"/>
</mask>
<path d="M1100 1400V1402H1102V1400H1100ZM1100 1300H1098V1400H1100H1102V1300H1100ZM1100 1400V1398H1000V1400V1402H1100V1400Z" fill="#FF7626" mask="url(#path-307-inside-154_16_4)"/>
</g>
<defs>
<clipPath id="clip0_16_4">
<rect width="1080" height="1350" fill="white"/>
</clipPath>
</defs>
</svg>
